<svg width="136" height="144" viewBox="0 0 136 144" fill="none" xmlns="http://www.w3.org/2000/svg">
<path d="M135.24 35.4138C135.24 35.4138 126.688 97.4093 112.631 111.35C95.71 128.083 83.5139 125.632 76.7065 134.27C69.886 125.62 57.6508 128.083 40.7559 111.338C26.6984 97.3975 18.1729 35.402 18.1729 35.402C55.2038 19.1283 76.7455 0.886719 76.7455 0.886719C77.3703 1.47592 98.7818 19.3993 135.24 35.4138Z" fill="#263238"/>
<path opacity="0.1" d="M76.7065 0.945638V134.27C69.886 125.62 57.6508 128.083 40.7559 111.338C26.6984 97.3975 18.1729 35.402 18.1729 35.402C55.2038 19.1283 76.7455 0.886719 76.7455 0.886719L76.7065 0.945638Z" fill="black"/>
<path d="M27.2451 40.41C27.2451 40.41 34.4561 92.7779 46.3268 104.562C60.6445 118.703 70.9533 116.641 76.7065 123.923C82.4596 116.641 92.8074 118.714 107.073 104.562C118.944 92.7779 126.155 40.41 126.155 40.41C94.916 26.6581 76.6934 11.2446 76.6934 11.2446C76.6934 11.2446 58.5229 26.6581 27.2451 40.41Z" fill="white"/>
<path opacity="0.2" d="M126.142 40.4103C126.142 40.4103 118.918 92.7665 107.047 104.562C92.7943 118.703 82.4465 116.641 76.6934 123.912V11.2686C77.24 11.7399 95.3455 26.8705 126.142 40.4103Z" fill="#D3D3D3"/>
<path d="M76.6932 88.3475C89.3596 88.3475 99.6277 79.0515 99.6277 67.5842C99.6277 56.1169 89.3596 46.8208 76.6932 46.8208C64.0269 46.8208 53.7588 56.1169 53.7588 67.5842C53.7588 79.0515 64.0269 88.3475 76.6932 88.3475Z" fill="#263238"/>
<path d="M74.0898 81.0769L63.8721 71.4611L67.6598 68.1616L73.2958 73.4644L85.4268 56.6016L89.8393 59.2058L74.0898 81.0769Z" fill="white"/>
<path d="M126.142 125.161L122.901 125.715L122.172 128.802L121.443 125.715L118.202 125.161L121.43 124.454L122.172 121.531L122.914 124.454L126.142 125.161Z" fill="white"/>
<path d="M30.0697 101.628L26.8287 102.17L26.0998 105.269L25.3709 102.17L22.1299 101.628L25.3579 100.909L26.0998 97.9868L26.8418 100.909L30.0697 101.628Z" fill="white"/>
<path d="M44.8685 20.0358L41.6275 20.5778L40.8986 23.6652L40.1827 20.5778L36.9287 20.024L40.1697 19.317L40.8986 16.3945L41.6405 19.317L44.8685 20.0358Z" fill="white"/>
<path d="M120.337 111.244L118.528 111.55L118.124 113.282L117.721 111.55L115.898 111.244L117.708 110.843L118.124 109.205L118.528 110.843L120.337 111.244Z" fill="white"/>
<path d="M132.871 76.7993L131.062 77.1057L130.658 78.8379L130.255 77.1057L128.433 76.7993L130.242 76.3986L130.658 74.7725L131.075 76.3986L132.871 76.7993Z" fill="white"/>
<path d="M117.485 16.3946L115.676 16.701L115.273 18.4214L114.856 16.701L113.047 16.3946L114.856 15.9939L115.273 14.356L115.676 15.9939L117.485 16.3946Z" fill="white"/>
<path d="M71.1875 141.717L69.3783 142.023L68.9618 143.744L68.5583 142.023L66.749 141.717L68.5583 141.316L68.9618 139.678L69.3783 141.316L71.1875 141.717Z" fill="white"/>
<path d="M19.9952 105.658L18.1859 105.965L17.7694 107.697L17.3659 105.965L15.5566 105.658L17.3659 105.258L17.7694 103.62L18.1859 105.258L19.9952 105.658Z" fill="white"/>
<path d="M22.8193 57.6973L20.9971 58.0037L20.5936 59.7359L20.1901 58.0037L18.3809 57.6973L20.1771 57.2967L20.5936 55.6587L21.0101 57.2967L22.8193 57.6973Z" fill="white"/>
<path d="M98.8597 119.009C98.7342 119.027 98.6198 119.085 98.5372 119.173C98.4546 119.26 98.4092 119.371 98.4092 119.487C98.4092 119.602 98.4546 119.713 98.5372 119.8C98.6198 119.888 98.7342 119.946 98.8597 119.964C98.9853 119.946 99.0997 119.888 99.1823 119.8C99.2649 119.713 99.3103 119.602 99.3103 119.487C99.3103 119.371 99.2649 119.26 99.1823 119.173C99.0997 119.085 98.9853 119.027 98.8597 119.009Z" fill="white"/>
<path d="M15.2963 32.7622C15.1707 32.7801 15.0563 32.8381 14.9737 32.9255C14.8911 33.013 14.8457 33.1244 14.8457 33.2395C14.8457 33.3546 14.8911 33.4659 14.9737 33.5534C15.0563 33.6409 15.1707 33.6988 15.2963 33.7167C15.4219 33.6988 15.5363 33.6409 15.6189 33.5534C15.7015 33.4659 15.7469 33.3546 15.7469 33.2395C15.7469 33.1244 15.7015 33.013 15.6189 32.9255C15.5363 32.8381 15.4219 32.7801 15.2963 32.7622Z" fill="white"/>
<path d="M115.273 121.684C115.147 121.702 115.033 121.76 114.95 121.847C114.868 121.935 114.822 122.046 114.822 122.161C114.822 122.276 114.868 122.388 114.95 122.475C115.033 122.563 115.147 122.621 115.273 122.639C115.398 122.621 115.513 122.563 115.595 122.475C115.678 122.388 115.723 122.276 115.723 122.161C115.723 122.046 115.678 121.935 115.595 121.847C115.513 121.76 115.398 121.702 115.273 121.684Z" fill="white"/>
<path d="M62.0499 47.3862C61.9119 47.3862 61.7794 47.4359 61.6818 47.5243C61.5842 47.6127 61.5293 47.7326 61.5293 47.8576C61.5293 47.9826 61.5842 48.1025 61.6818 48.1909C61.7794 48.2793 61.9119 48.3289 62.0499 48.3289C62.188 48.3289 62.3204 48.2793 62.4181 48.1909C62.5157 48.1025 62.5706 47.9826 62.5706 47.8576C62.5706 47.7326 62.5157 47.6127 62.4181 47.5243C62.3204 47.4359 62.188 47.3862 62.0499 47.3862Z" fill="white"/>
<path d="M13.3959 66.5469C13.2703 66.5648 13.1559 66.6227 13.0733 66.7102C12.9907 66.7977 12.9453 66.909 12.9453 67.0241C12.9453 67.1392 12.9907 67.2505 13.0733 67.338C13.1559 67.4255 13.2703 67.4835 13.3959 67.5014C13.5215 67.4835 13.6359 67.4255 13.7185 67.338C13.8011 67.2505 13.8464 67.1392 13.8464 67.0241C13.8464 66.909 13.8011 66.7977 13.7185 66.7102C13.6359 66.6227 13.5215 66.5648 13.3959 66.5469Z" fill="white"/>
<path d="M1.14749 61.3623C1.06101 61.377 0.982936 61.4187 0.926756 61.48C0.870575 61.5413 0.839844 61.6185 0.839844 61.6982C0.839844 61.7778 0.870575 61.855 0.926756 61.9163C0.982936 61.9776 1.06101 62.0193 1.14749 62.034C1.23398 62.0193 1.31209 61.9776 1.36827 61.9163C1.42445 61.855 1.45518 61.7778 1.45518 61.6982C1.45518 61.6185 1.42445 61.5413 1.36827 61.48C1.31209 61.4187 1.23398 61.377 1.14749 61.3623Z" fill="white"/>
<path d="M101.411 10.1841C101.325 10.1988 101.247 10.2404 101.19 10.3018C101.134 10.3631 101.104 10.4403 101.104 10.5199C101.104 10.5996 101.134 10.6768 101.19 10.7381C101.247 10.7994 101.325 10.841 101.411 10.8558C101.498 10.841 101.576 10.7994 101.632 10.7381C101.688 10.6768 101.719 10.5996 101.719 10.5199C101.719 10.4403 101.688 10.3631 101.632 10.3018C101.576 10.2404 101.498 10.1988 101.411 10.1841Z" fill="white"/>
<path d="M49.5284 125.396C49.4419 125.411 49.3638 125.452 49.3077 125.514C49.2515 125.575 49.2207 125.652 49.2207 125.732C49.2207 125.812 49.2515 125.889 49.3077 125.95C49.3638 126.011 49.4419 126.053 49.5284 126.068C49.6149 126.053 49.6929 126.011 49.7491 125.95C49.8053 125.889 49.8361 125.812 49.8361 125.732C49.8361 125.652 49.8053 125.575 49.7491 125.514C49.6929 125.452 49.6149 125.411 49.5284 125.396Z" fill="white"/>
<path d="M37.9054 119.209C37.6576 119.235 37.4288 119.342 37.2628 119.511C37.0967 119.679 37.0049 119.897 37.0049 120.123C37.0049 120.349 37.0967 120.566 37.2628 120.735C37.4288 120.903 37.6576 121.01 37.9054 121.036C38.1532 121.01 38.3819 120.903 38.548 120.735C38.714 120.566 38.8058 120.349 38.8058 120.123C38.8058 119.897 38.714 119.679 38.548 119.511C38.3819 119.342 38.1532 119.235 37.9054 119.209Z" fill="white"/>
</svg>
